<svg width="24" height="24" viewBox="0 0 24 24" fill="none" xmlns="http://www.w3.org/2000/svg">
<path d="M18.4355 9.07621C18.2639 9.67565 17.6075 9.97254 17.0356 9.73376C16.5199 9.51855 16.2615 8.94223 16.3881 8.39448C16.4686 8.04649 16.5265 7.71506 16.562 7.40015C16.6318 6.80029 16.6311 6.26709 16.5597 5.80054C16.4885 5.33395 16.3472 4.94742 16.1362 4.64092C15.9316 4.32842 15.6645 4.10334 15.3347 3.96565C14.7487 3.72106 14.1007 3.81752 13.3906 4.25492C12.6835 4.68491 11.9552 5.4467 11.2056 6.54031C10.4591 7.62646 9.7318 9.03079 9.02378 10.7533C8.30349 12.5056 7.82467 14.0355 7.58733 15.3429C7.35657 16.6443 7.34008 17.6945 7.53786 18.4934C7.74222 19.2863 8.13563 19.8044 8.71808 20.0475C9.04086 20.1822 9.37941 20.2187 9.73366 20.1569C10.0945 20.0891 10.4608 19.9231 10.8324 19.6589C11.2076 19.3962 11.5797 19.0361 11.9486 18.5786C12.1419 18.3419 12.3302 18.0796 12.5135 17.7918C12.8164 17.3161 13.4085 17.0966 13.9242 17.3187C14.4918 17.5632 14.7414 18.2402 14.4359 18.7808C14.0606 19.4448 13.6589 20.0625 13.2311 20.6339C12.5966 21.4873 11.9328 22.1974 11.2394 22.7641C10.5491 23.3234 9.85652 23.6982 9.16165 23.8887C8.46983 24.0716 7.80287 24.0291 7.16077 23.7611C6.21341 23.3657 5.55937 22.5466 5.19865 21.3041C4.83793 20.0615 4.80521 18.471 5.1005 16.5326C5.39578 14.5941 6.04916 12.3945 7.06062 9.93384C8.07516 7.46569 9.15834 5.44553 10.3102 3.87336C11.4651 2.29373 12.6061 1.19311 13.7331 0.571515C14.8601 -0.0500803 15.8937 -0.164628 16.8341 0.227873C17.4341 0.478312 17.9184 0.890136 18.2871 1.46335C18.6557 2.03656 18.8993 2.75411 19.0177 3.61601C19.1392 4.47045 19.1245 5.45144 18.9734 6.55901C18.8703 7.34531 18.691 8.18437 18.4355 9.07621Z" fill="black"/>
</svg>
